#!OML:ASF F:\VICON\USERDATA\INSTALL\rory3\rory3.ASF
:FULLY-SPECIFIED
:DEGREES
396
root 13.0135 18.1657 13.3975 314.211 -80.9282 48.3319
lowerback 12.1804 1.19731 -3.90205
upperback 2.3121 0.987745 -0.297106
thorax -4.46425 0.50216 1.73645
lowerneck -5.56777 -2.18571 -10.6363
upperneck 43.5461 -7.06411 7.08409
head 17.7101 -4.60693 3.87913
rclavicle -3.77691e-015 6.36111e-015
rhumerus -35.6221 -24.0475 -73.6321
rradius 28.8929
rwrist 9.36368
rhand -14.7443 6.57182
rfingers 7.12502
rthumb 11.4114 -23.0977
lclavicle -3.77691e-015 6.36111e-015
lhumerus -30.9392 2.89306 82.3095
lradius 41.598
lwrist -1.84608
lhand -19.5528 25.091
lfingers 7.12502
lthumb 6.77158 54.9627
rfemur -31.6514 -6.64492 17.0536
rtibia 34.0688
rfoot -9.35101 5.45803
rtoes -24.8019
lfemur 3.95 -3.12489 -30.1562
ltibia 16.7265
lfoot -4.2902 -12.4935
ltoes -18.1238
397
root 13.1478 18.1725 13.4014 311.481 -81.3 51.0447
lowerback 12.1756 1.22752 -3.91292
upperback 2.35873 1.02728 -0.267098
thorax -4.41576 0.519699 1.76818
lowerneck -5.66712 -1.96803 -11.0579
upperneck 43.7129 -6.67607 7.15122
head 17.8045 -4.519 4.05662
rclavicle -3.97569e-016 -7.95139e-015
rhumerus -35.0052 -22.8275 -74.1144
rradius 29.2726
rwrist 9.07454
rhand -14.3538 6.80462
rfingers 7.12502
rthumb 11.7879 -22.8436
lclavicle -3.97569e-016 -7.95139e-015
lhumerus -31.0052 3.75505 82.0335
lradius 40.5977
lwrist -2.20931
lhand -19.2145 24.8678
lfingers 7.12502
lthumb 7.0981 54.7288
rfemur -31.9401 -6.65827 16.9148
rtibia 35.6144
rfoot -9.91552 5.82972
rtoes -21.056
lfemur 3.44126 -2.68909 -30.2411
ltibia 16.861
lfoot -4.21555 -12.197
ltoes -16.4047
398
root 13.2806 18.1846 13.4036 308.222 -81.6366 54.1882
lowerback 12.3107 1.29699 -3.93373
upperback 2.40234 1.10776 -0.270938
thorax -4.44958 0.558216 1.76157
lowerneck -5.75511 -1.78448 -11.3574
upperneck 43.9047 -6.32788 7.11046
head 17.9044 -4.44216 4.15458
rclavicle 4.77083e-015 -6.36111e-015
rhumerus -34.4661 -21.6367 -74.6208
rradius 29.688
rwrist 8.59984
rhand -14.1414 6.71129
rfingers 7.12502
rthumb 11.9927 -22.9251
lclavicle 4.77083e-015 -6.36111e-015
lhumerus -31.1393 4.4635 81.7401
lradius 39.6671
lwrist -2.44931
lhand -18.859 24.7991
lfingers 7.12502
lthumb 7.44129 54.6482
rfemur -32.107 -6.54085 16.7415
rtibia 37.3134
rfoot -10.4733 5.93075
rtoes -20.813
lfemur 3.13289 -2.4328 -30.3994
ltibia 16.8732
lfoot -4.03604 -11.6736
ltoes -15.3452
399
root 13.4115 18.1894 13.4082 303.663 -81.6281 58.5621
lowerback 12.4943 1.46 -4.19383
upperback 2.48212 1.26509 -0.478398
thorax -4.47726 0.634387 1.66318
lowerneck -5.77418 -1.73754 -11.2011
upperneck 44.0024 -6.20202 6.86967
head 17.9298 -4.39797 4.03259
rclavicle 7.7526e-015 6.36111e-015
rhumerus -34.0367 -20.633 -75.1994
rradius 30.1171
rwrist 7.98541
rhand -14.1583 6.7757
rfingers 7.12502
rthumb 11.9765 -22.8617
lclavicle 7.7526e-015 6.36111e-015
lhumerus -31.3703 4.59482 81.4893
lradius 38.9586
lwrist -2.42316
lhand -19.0917 25.1496
lfingers 7.12502
lthumb 7.21667 55.0065
rfemur -32.1015 -6.46277 16.1515
rtibia 38.9801
rfoot -10.9456 5.56949
rtoes -23.2773
lfemur 2.80183 -2.26323 -30.9744
ltibia 17.1611
lfoot -4.05331 -10.9913
ltoes -15.7552
400
root 13.5369 18.1844 13.4099 299.01 -81.3518 63.1857
lowerback 12.4331 1.65852 -4.73433
upperback 2.57308 1.44698 -0.677227
thorax -4.36683 0.72359 1.73152
lowerneck -5.81818 -1.7286 -11.2272
upperneck 44.0675 -6.14928 6.79113
head 17.9719 -4.39086 4.01029
rclavicle -4.96962e-015 -3.73715e-014
rhumerus -33.5648 -19.9813 -75.4665
rradius 30.4123
rwrist 7.79592
rhand -14.2484 7.18142
rfingers 7.12502
rthumb 11.8896 -22.461
lclavicle -4.96962e-015 -3.73715e-014
lhumerus -31.5166 4.94759 81.3518
lradius 38.1927
lwrist -2.7526
lhand -19.117 25.2703
lfingers 7.12502
lthumb 7.19217 55.1281
rfemur -32.2898 -6.56491 15.334
rtibia 40.7824
rfoot -11.4633 4.91238
rtoes -23.7848
lfemur 2.34165 -2.0367 -31.757
ltibia 17.3248
lfoot -4.18452 -10.4984
ltoes -17.5475
401
root 13.663 18.196 13.4142 302.314 -82.4631 59.9158
lowerback 12.3108 1.55507 -3.33104
upperback 2.57069 1.51743 -0.39848
thorax -4.27902 0.744865 1.22478
lowerneck -5.85118 -1.60686 -11.6507
upperneck 44.1606 -5.9689 7.02424
head 18.0429 -4.3673 4.23457
rclavicle 6.75868e-015 -1.66979e-014
rhumerus -33.1169 -19.5085 -75.5985
rradius 30.6553
rwrist 7.83223
rhand -14.1272 7.52017
rfingers 7.12502
rthumb 12.0064 -22.1155
lclavicle 6.75868e-015 -1.66979e-014
lhumerus -31.6319 5.61666 81.1317
lradius 37.2426
lwrist -3.45848
lhand -18.863 25.3541
lfingers 7.12502
lthumb 7.43738 55.2034
rfemur -32.4316 -6.90694 16.5289
rtibia 42.5258
rfoot -11.7555 5.01365
rtoes -22.4257
lfemur 1.70236 -1.90696 -30.5183
ltibia 17.5061
lfoot -4.24196 -10.3588
ltoes -18.6606
402
root 13.7868 18.1909 13.4092 296.617 -82.4458 65.0081
lowerback 12.8407 1.70661 -3.67539
upperback 2.74895 1.63374 -0.524841
thorax -4.39421 0.799155 1.25856
lowerneck -5.85329 -1.40863 -12.0678
upperneck 44.2261 -5.68888 7.29836
head 18.0699 -4.29943 4.49327
rclavicle 2.24627e-014 -1.66979e-014
rhumerus -32.6636 -19.1152 -75.8377
rradius 30.8934
rwrist 8.20137
rhand -13.6959 7.7153
rfingers 7.12502
rthumb 12.4224 -21.8956
lclavicle 2.24627e-014 -1.66979e-014
lhumerus -31.7448 6.32513 80.7377
lradius 36.1694
lwrist -4.09156
lhand -18.8994 25.314
lfingers 7.12502
lthumb 7.40228 55.1645
rfemur -31.8831 -6.69407 15.9392
rtibia 44.3902
rfoot -11.8552 5.7248
rtoes -22.1161
lfemur 1.87412 -1.54489 -30.9747
ltibia 17.7011
lfoot -4.20147 -9.8575
ltoes -18.6599
